<svg width="6" height="14" viewBox="0 0 6 14" fill="none" xmlns="http://www.w3.org/2000/svg">
<path d="M1.54183 1.45833C1.54183 0.65275 2.19458 0 3.00016 0C3.80575 0 4.4585 0.65275 4.4585 1.45833C4.4585 2.26392 3.80575 2.91667 3.00016 2.91667C2.19458 2.91667 1.54183 2.26392 1.54183 1.45833ZM5.91683 5.83333V7.58333C5.91683 8.44317 5.44433 9.1875 4.75016 9.59233V13.4167C4.75016 13.7387 4.48941 14 4.16683 14C3.84425 14 3.5835 13.7387 3.5835 13.4167V9.91667H2.41683V13.4167C2.41683 13.7387 2.15608 14 1.8335 14C1.51091 14 1.25016 13.7387 1.25016 13.4167V9.59233C0.555996 9.1875 0.0834961 8.44317 0.0834961 7.58333V5.83333C0.0834961 4.5465 1.13 3.5 2.41683 3.5H3.5835C4.87033 3.5 5.91683 4.5465 5.91683 5.83333Z" fill="white"/>
</svg>
