<svg width="10" height="13" viewBox="0 0 10 13" fill="none" xmlns="http://www.w3.org/2000/svg">
<path d="M6.812 10.2354H3.1915C3.58577 9.36771 4.21477 8.62751 5.0075 8.09841C5.79897 8.62578 6.42467 9.36678 6.812 10.2354ZM9.5 11.2354V12.7354H0.5V11.2354C0.529899 10.3707 0.743398 9.52229 1.12632 8.74644C1.50925 7.97059 2.05284 7.28508 2.721 6.73541C2.05284 6.18575 1.50925 5.50023 1.12632 4.72438C0.743398 3.94853 0.529899 3.1001 0.5 2.23541C0.5 1.83759 0.658035 1.45606 0.93934 1.17475C1.22064 0.893448 1.60218 0.735413 2 0.735413L8 0.735413C8.39782 0.735413 8.77936 0.893448 9.06066 1.17475C9.34196 1.45606 9.5 1.83759 9.5 2.23541C9.47048 3.09931 9.25801 3.94711 8.87662 4.72282C8.49523 5.49853 7.9536 6.1845 7.2875 6.73541C7.9536 7.28632 8.49523 7.97229 8.87662 8.748C9.25801 9.52371 9.47048 10.3715 9.5 11.2354ZM7.955 10.6579C7.6745 8.87491 6.1585 7.64641 5.2805 7.07341L5.006 6.89391L4.7325 7.07391C3.85 7.65191 2.3295 8.88541 2.046 10.6564L1.9535 11.2354H8.046L7.955 10.6579Z" fill="white"/>
</svg>
