<svg width="9" height="10" viewBox="0 0 9 10" fill="none" xmlns="http://www.w3.org/2000/svg">
<path d="M4.49996 0.515747C3.50768 0.516839 2.55636 0.911475 1.85468 1.61308C1.153 2.31469 0.758271 3.26598 0.75708 4.25825C0.75708 5.222 1.50333 6.73025 2.97521 8.741C3.15043 8.98105 3.37985 9.17633 3.64481 9.31096C3.90976 9.44559 4.20276 9.51576 4.49996 9.51576C4.79715 9.51576 5.09015 9.44559 5.3551 9.31096C5.62006 9.17633 5.84948 8.98105 6.02471 8.741C7.49658 6.73025 8.24283 5.222 8.24283 4.25825C8.24164 3.26598 7.84691 2.31469 7.14523 1.61308C6.44355 0.911475 5.49223 0.516839 4.49996 0.515747ZM4.49996 5.75C4.20328 5.75 3.91327 5.66202 3.6666 5.4972C3.41993 5.33238 3.22767 5.09811 3.11414 4.82402C3.0006 4.54993 2.9709 4.24833 3.02878 3.95736C3.08665 3.66639 3.22952 3.39912 3.4393 3.18934C3.64907 2.97956 3.91635 2.8367 4.20732 2.77882C4.49829 2.72094 4.79989 2.75065 5.07398 2.86418C5.34807 2.97771 5.58234 3.16997 5.74716 3.41664C5.91198 3.66332 5.99996 3.95333 5.99996 4.25C5.99996 4.64782 5.84192 5.02935 5.56062 5.31066C5.27931 5.59196 4.89778 5.75 4.49996 5.75Z" fill="white"/>
</svg>
