<svg width="21" height="21" viewBox="0 0 21 21" fill="none" xmlns="http://www.w3.org/2000/svg">
<path d="M17.2209 8.82226C15.8118 8.66026 13.6349 8.46635 11.2636 8.46635C9.77177 8.46635 8.19887 8.54162 6.58129 8.69053L6.47373 8.53344C5.88296 7.6719 4.94716 7.09835 3.90546 6.95844L2.27547 6.74081C1.99581 6.70481 1.19653 6.84881 1.37277 7.78644L3.02179 13.2167C3.11281 13.5186 3.37261 13.7428 3.68785 13.7903C3.77969 13.805 5.68273 14.0922 8.31471 14.2411C6.87254 16.8437 6.99334 17.5285 7.25894 17.9908C7.45503 18.3312 7.80502 18.5259 8.21873 18.5259C11.2611 18.5259 13.7963 15.9306 15.1615 14.1797C15.9393 14.1224 16.631 14.057 17.1977 13.9956C18.5332 13.8524 19.5409 12.7397 19.5409 11.4069C19.5409 10.0855 18.5439 8.97444 17.2209 8.82226Z" fill="white"/>
<path d="M11.2643 6.82998C12.5419 6.82998 13.7631 6.88398 14.8462 6.96007C13.4388 5.2558 11.0451 3.0058 8.21866 3.0058C7.80496 3.0058 7.45579 3.20053 7.25887 3.54089C7.00568 3.98025 6.88323 4.62089 8.11854 6.93143C9.19334 6.86434 10.2475 6.82998 11.2643 6.82998Z" fill="white"/>
</svg>
