<svg width="18" height="18" viewBox="0 0 18 18" fill="none" xmlns="http://www.w3.org/2000/svg">
<path d="M16.8863 15.0781H16.5317V4.208C16.5317 2.08096 14.7821 0.350861 12.6311 0.350861H6.24824C4.09722 0.350861 2.34761 2.08096 2.34761 4.208V15.0781H1.99301C1.40508 15.0781 0.929199 15.5487 0.929199 16.1301C0.929199 16.7115 1.40508 17.182 1.99301 17.182H16.8863C17.4742 17.182 17.9501 16.7115 17.9501 16.1301C17.9501 15.5487 17.4742 15.0781 16.8863 15.0781ZM14.4041 15.0781H10.5035V9.81839H14.4041V15.0781ZM14.4041 4.208V7.7145H10.5035V2.45476H12.6311C13.6084 2.45476 14.4041 3.24161 14.4041 4.208ZM6.24824 2.45476H8.37585V7.7145H4.47522V4.208C4.47522 3.24161 5.27095 2.45476 6.24824 2.45476ZM4.47522 9.81839H8.37585V15.0781H4.47522V9.81839Z" fill="white"/>
</svg>
