<svg width="9" height="16" viewBox="0 0 9 16" fill="none" xmlns="http://www.w3.org/2000/svg">
<path d="M0.650603 14.9814C0.650836 14.7162 0.756345 14.4621 0.943935 14.2747L6.0586 9.16004C6.21341 9.00527 6.33622 8.82152 6.42 8.61928C6.50379 8.41704 6.54691 8.20028 6.54691 7.98137C6.54691 7.76247 6.50379 7.5457 6.42 7.34346C6.33622 7.14123 6.21341 6.95748 6.0586 6.80271L0.950602 1.69471C0.768444 1.5061 0.66765 1.2535 0.669928 0.991304C0.672206 0.729108 0.777375 0.478295 0.962783 0.292887C1.14819 0.107479 1.399 0.0023098 1.6612 3.14713e-05C1.9234 -0.00224686 2.176 0.098547 2.3646 0.280705L7.4726 5.38471C8.15943 6.07288 8.54517 7.00543 8.54517 7.97771C8.54517 8.94998 8.15943 9.88253 7.4726 10.5707L2.35794 15.6887C2.21808 15.8287 2.03986 15.924 1.84582 15.9626C1.65178 16.0012 1.45064 15.9814 1.26786 15.9057C1.08508 15.83 0.928864 15.7017 0.818988 15.5372C0.709113 15.3726 0.650513 15.1792 0.650603 14.9814Z" fill="black"/>
</svg>
