<svg width="8" height="16" viewBox="0 0 8 16" fill="none" xmlns="http://www.w3.org/2000/svg">
<path d="M7.89456 1.00045C7.89433 1.26558 7.78882 1.51976 7.60123 1.70712L2.48656 6.82179C2.33175 6.97656 2.20895 7.16031 2.12516 7.36255C2.04138 7.56479 1.99825 7.78155 1.99825 8.00045C1.99825 8.21936 2.04138 8.43612 2.12516 8.63836C2.20895 8.8406 2.33175 9.02435 2.48656 9.17912L7.59456 14.2871C7.77672 14.4757 7.87752 14.7283 7.87524 14.9905C7.87296 15.2527 7.76779 15.5035 7.58238 15.6889C7.39697 15.8743 7.14616 15.9795 6.88396 15.9818C6.62177 15.9841 6.36917 15.8833 6.18056 15.7011L1.07256 10.5971C0.38574 9.90895 0 8.97639 0 8.00412C0 7.03185 0.38574 6.0993 1.07256 5.41112L6.18723 0.29312C6.32708 0.153176 6.50531 0.0578627 6.69935 0.01924C6.89339 -0.0193828 7.09453 0.000421325 7.27731 0.0761463C7.46009 0.151871 7.6163 0.280114 7.72618 0.444646C7.83605 0.609179 7.89465 0.802607 7.89456 1.00045Z" fill="black"/>
</svg>
