<svg width="36" height="36" viewBox="0 0 36 36" fill="none" xmlns="http://www.w3.org/2000/svg">
<path d="M21.1813 18L35.3408 3.84206C36.2197 2.96311 36.2197 1.53808 35.3408 0.659206C34.4619 -0.219735 33.0368 -0.219735 32.1579 0.659206L18 14.8186L3.84206 0.659206C2.96311 -0.219735 1.53808 -0.219735 0.659206 0.659206C-0.219665 1.53815 -0.219735 2.96318 0.659206 3.84206L14.8186 18L0.659206 32.1579C-0.219735 33.0369 -0.219735 34.4619 0.659206 35.3408C1.53815 36.2197 2.96318 36.2197 3.84206 35.3408L18 21.1813L32.1579 35.3408C33.0368 36.2197 34.4619 36.2197 35.3407 35.3408C36.2197 34.4619 36.2197 33.0368 35.3407 32.1579L21.1813 18Z" fill="white"/>
</svg>
