<svg width="24" height="24" viewBox="0 0 24 24" fill="none" xmlns="http://www.w3.org/2000/svg">
<path d="M21 23C21 23 21 24 20 24H16V19.499C15.999 18.671 15.328 18 14.5 18H14L13.859 17.719C13.639 17.279 13.189 17 12.696 17H11.303C10.811 17 10.36 17.278 10.14 17.719L9.999 18H9.5C8.672 18 8 18.672 8 19.5V24H4C3.192 24 3 23 3 23C3 18.029 7.029 14 12 14C16.971 14 21 18.029 21 23ZM12 19.5C11.171 19.5 10.5 20.171 10.5 21C10.5 21.829 11.171 22.5 12 22.5C12.829 22.5 13.5 21.829 13.5 21C13.5 20.171 12.829 19.5 12 19.5ZM4 4.5C4 3.672 4.672 3 5.5 3H6.667L6.945 2.375C7.587 0.93 9.019 0 10.6 0H13.401C14.982 0 16.414 0.931 17.056 2.375L17.334 3H18.501C19.329 3 20.001 3.672 20.001 4.5C20.001 5.328 19.329 6 18.501 6H18.001C18.001 9.309 15.31 12 12.001 12C8.692 12 6.001 9.309 6.001 6H5.501C4.673 6 4 5.328 4 4.5ZM15 6H9C9 7.654 10.346 9 12 9C13.654 9 15 7.654 15 6Z" fill="white"/>
</svg>
