<svg width="15" height="15" viewBox="0 0 15 15" fill="none" xmlns="http://www.w3.org/2000/svg">
<path d="M1.12202 8.2123L3.21298 9.77915L2.41888 12.3024C2.29055 12.6937 2.28893 13.1171 2.41425 13.5095C2.53957 13.9019 2.78512 14.2422 3.1143 14.4797C3.43785 14.7248 3.82992 14.8562 4.23212 14.8541C4.63431 14.852 5.02509 14.7167 5.34623 14.4683L7.39079 12.9243L9.43593 14.4664C9.75889 14.7102 10.1489 14.8426 10.5498 14.8446C10.9507 14.8466 11.3419 14.7181 11.6671 14.4776C11.9924 14.2371 12.2349 13.897 12.3599 13.5061C12.4849 13.1153 12.4859 12.6938 12.3627 12.3024L11.5686 9.77915L13.6596 8.2123C13.9821 7.97035 14.2219 7.63001 14.3446 7.23988C14.4674 6.84976 14.4668 6.42982 14.343 6.04004C14.2193 5.65026 13.9786 5.31057 13.6555 5.06951C13.3323 4.82844 12.9431 4.69832 12.5436 4.69774H9.97512L9.19571 2.20524C9.07314 1.8129 8.8323 1.47064 8.5079 1.22781C8.18351 0.984976 7.79234 0.854126 7.39079 0.854126C6.98923 0.854126 6.59806 0.984976 6.27367 1.22781C5.94928 1.47064 5.70843 1.8129 5.58586 2.20524L4.80645 4.69774H2.24033C1.84078 4.69832 1.45163 4.82844 1.12847 5.06951C0.805301 5.31057 0.564649 5.65026 0.440883 6.04004C0.317118 6.42982 0.31657 6.84976 0.439318 7.23988C0.562066 7.63001 0.801832 7.97035 1.12437 8.2123H1.12202Z" fill="white"/>
</svg>
