<svg width="8" height="9" viewBox="0 0 8 9" fill="none" xmlns="http://www.w3.org/2000/svg">
<path d="M8 6.66667C8 7.67767 7.17767 8.5 6.16667 8.5C5.15567 8.5 4.33333 7.67767 4.33333 6.66667C4.33333 5.65567 5.15567 4.83333 6.16667 4.83333C7.17767 4.83333 8 5.65567 8 6.66667ZM1.83333 4.83333C0.822333 4.83333 0 5.65567 0 6.66667C0 7.67767 0.822333 8.5 1.83333 8.5C2.84433 8.5 3.66667 7.67767 3.66667 6.66667C3.66667 5.65567 2.84433 4.83333 1.83333 4.83333ZM6.66667 1.83333V1.33333C6.66667 0.873 6.29367 0.5 5.83333 0.5C5.373 0.5 5 0.873 5 1.33333V1.83333H6.66667ZM3 1.83333V1.33333C3 0.873 2.627 0.5 2.16667 0.5C1.70633 0.5 1.33333 0.873 1.33333 1.33333V1.83333H3ZM7 2.5H1C0.447667 2.5 0 2.94767 0 3.5V4.97267C0.457 4.47833 1.10867 4.16667 1.83333 4.16667C2.558 4.16667 3.20967 4.47833 3.66667 4.97267V3.83333H4.33333V4.97267C4.79033 4.47833 5.442 4.16667 6.16667 4.16667C6.89133 4.16667 7.543 4.47833 8 4.97267V3.5C8 2.94767 7.55233 2.5 7 2.5Z" fill="black"/>
</svg>
